<svg xmlns="http://www.w3.org/2000/svg" width="75" height="79.5" viewBox="0 0 100 106">
  <defs>
    <style>
      .cls-1 {
        fill: red;
        stroke: #000;
        stroke-width: 0.612px;
        fill-rule: evenodd;
      }
    </style>
  </defs>
  <path id="Shape_44_1" data-name="Shape 44 1" class="cls-1" d="M3.927,63.321a6.216,6.216,0,0,0,.192,4.053,22.764,22.764,0,0,0,5.6,8.51,6.575,6.575,0,0,0,2.566,1.424,16.869,16.869,0,0,0,3.809.648c2.755,0.227,5.515.382,8.273,0.566a19.059,19.059,0,0,0,3.681,0c0.3-.039.61-0.076,0.912-0.13a1.193,1.193,0,0,0,.88-0.612c0.091-.163.179-0.329,0.259-0.5a21.592,21.592,0,0,1,3-4.716,16.848,16.848,0,0,0,2-3.152c0.367-.711.14-0.96-0.458-1.026-0.244-.027-0.491-0.037-0.734-0.073a10.357,10.357,0,0,1-2.487-.671,8.756,8.756,0,0,1-1-.472,2.471,2.471,0,0,1-1.356-1.9,5.005,5.005,0,0,0-.1-0.555,1.89,1.89,0,0,0-.549-0.958c-0.407-.382-0.823-0.754-1.213-1.153a3.587,3.587,0,0,1-1.043-1.951,13.4,13.4,0,0,1,.2-5.592,4.477,4.477,0,0,1,1.294-2.229,16.632,16.632,0,0,1,1.738-1.389c1.576-1.089,3.175-2.143,4.766-3.211a0.561,0.561,0,0,0,.232-0.638,22.808,22.808,0,0,1-1.119-3.378,1.794,1.794,0,0,0-.735-1.038,6.879,6.879,0,0,0-5.973-1.038,3.068,3.068,0,0,0-.525.175,18.619,18.619,0,0,1-5.576,1.144,10.886,10.886,0,0,0-2.359.4c-0.808.25-.825,0.254-0.611,1.172a1.679,1.679,0,0,1,.034.363,0.53,0.53,0,0,1-.544.392A4.285,4.285,0,0,1,16.47,45.6c-0.331-.164-0.641-0.375-0.981-0.514a1.842,1.842,0,0,0-1.44-.007,8.822,8.822,0,0,0-.994.49,31.986,31.986,0,0,0-4.714,3.28,16.856,16.856,0,0,0-3.2,3.619,13.121,13.121,0,0,0-.871,1.649,1.947,1.947,0,0,0-.05,1.468c0.234,0.713.469,1.425,0.719,2.132a3.676,3.676,0,0,1-.036,2.569C4.544,61.286,4.219,62.3,3.927,63.321ZM16.191,32.834a12.679,12.679,0,0,0,2.374,5.03c0.821,1.015,1.591,2.071,2.4,3.1a4.9,4.9,0,0,0,.763.807,1.056,1.056,0,0,0,.672.246,9.528,9.528,0,0,0,1.626-.278c0.653-.171,1.291-0.4,1.933-0.614a9.587,9.587,0,0,1,4.193-.289,7.318,7.318,0,0,1,2.4.933,0.961,0.961,0,0,0,.352.082,0.2,0.2,0,0,0,.137-0.108,8.089,8.089,0,0,0,.39-0.84,40.839,40.839,0,0,1,2.568-5.61,12.512,12.512,0,0,1,1.837-2.576,2.635,2.635,0,0,1,1.243-.771,13.727,13.727,0,0,1,8.516.285,10.009,10.009,0,0,1,2.095,1.166,0.276,0.276,0,0,0,.407-0.2c0.056-.937.108-1.874,0.162-2.81l-0.076,0c0-.5,0-1,0-1.5a9.276,9.276,0,0,0-.947-4.168,13.017,13.017,0,0,1-.956-3.227c-0.064-.306-0.1-0.618-0.145-0.927a6.612,6.612,0,0,0-2.346-4.132,11.789,11.789,0,0,0-2.727-1.9,1.772,1.772,0,0,0-1.061-.25,5.305,5.305,0,0,1-2-.146,12.934,12.934,0,0,0-2.194-.223,19.1,19.1,0,0,1-3.481-.318,0.972,0.972,0,0,0-.708.058,1.139,1.139,0,0,1-1.369.046,3.4,3.4,0,0,0-1.441-.258c-2.333-.025-4.666-0.048-7-0.058-0.552,0-1.105.033-1.655,0.083a1.13,1.13,0,0,0-1.093.848,6.217,6.217,0,0,1-.807,1.675,5.017,5.017,0,0,0-.56,1.376,3.273,3.273,0,0,1-1.552,2.01c-0.264.16-.526,0.323-0.784,0.492a4.163,4.163,0,0,0-1.831,2.916,12.974,12.974,0,0,0-.248,2.8A36.906,36.906,0,0,0,16.191,32.834Zm29.886,0.154a13.156,13.156,0,0,0-6.546.049,1.675,1.675,0,0,0-.927.57A15.948,15.948,0,0,0,37.276,35.4a37.421,37.421,0,0,0-2.647,5.556,4.345,4.345,0,0,0-.341,1.828,11.087,11.087,0,0,0,1.266,4.463,2.725,2.725,0,0,0,.734.824,6.678,6.678,0,0,0,1.906,1.115,13.78,13.78,0,0,1,3.974,2.3,0.556,0.556,0,0,0,.819-0.044,2.474,2.474,0,0,0,.92-1.137c0.148-.408.292-0.819,0.448-1.224q0.36-.938,1.135-0.414c0.357,0.241.7,0.512,1.058,0.742a0.923,0.923,0,0,0,.88.085,1.09,1.09,0,0,0,.406-0.331,0.775,0.775,0,0,0,.073-0.362,1.645,1.645,0,0,1,.946-1.292,10.933,10.933,0,0,1,2.17-1,0.406,0.406,0,0,0,.338-0.545c-0.086-.365-0.162-0.733-0.273-1.09a6.477,6.477,0,0,1-.077-3.333c0.118-.549.247-1.1,0.365-1.644,0.079-.365.17-0.731,0.215-1.1a2.463,2.463,0,0,0-.421-1.779c-0.216-.3-0.434-0.605-0.673-0.889-0.319-.379-0.678-0.724-0.988-1.11A6.08,6.08,0,0,0,46.077,32.988Zm6.748,3.768a36.047,36.047,0,0,1,4.03-2.954,24.561,24.561,0,0,1,2.255-1.259,3.94,3.94,0,0,1,1.776-.43c0.8-.009,1.594-0.044,2.391-0.037a2.276,2.276,0,0,1,1.8.812,7.586,7.586,0,0,0,2.186,1.688,8.494,8.494,0,0,1,1.061.743,4.22,4.22,0,0,1,1.5,2.092c0.324,1.075.629,2.157,0.892,3.249a4.084,4.084,0,0,1-.037,1.862q-0.227,1-.4,2.018a0.328,0.328,0,0,0,.215.224,2.661,2.661,0,0,0,.693-0.213,8.407,8.407,0,0,1,4.843-.785,4.948,4.948,0,0,0,3.474-.885A8.513,8.513,0,0,0,82.7,39.343a27.329,27.329,0,0,0,2.145-5.977,14.107,14.107,0,0,0,.3-2.415,8.449,8.449,0,0,0-1.211-4.835q-1.49-2.481-2.986-4.958c-0.451-.746-0.906-1.488-1.379-2.22a9.574,9.574,0,0,0-.775-1.046,1.891,1.891,0,0,0-1.074-.681c-0.18-.034-0.362-0.068-0.539-0.117a2.158,2.158,0,0,1-1.335-.934,4.1,4.1,0,0,0-2.079-1.468,2.79,2.79,0,0,0-1.081-.153c-0.551-.007-1.1.036-1.655,0.065a5.149,5.149,0,0,1-3-.736c-0.264-.159-0.543-0.292-0.8-0.454a5.446,5.446,0,0,0-4.614-.473,16.554,16.554,0,0,0-1.739.607,37.766,37.766,0,0,0-5.4,2.807c-0.261.164-.521,0.332-0.767,0.518a4.383,4.383,0,0,0-1.626,2.43,30.783,30.783,0,0,0-.641,3.693c-0.3,2.041-.5,4.1-0.819,6.135a28.8,28.8,0,0,0-.327,3.734,3.752,3.752,0,0,1-.007.749A3.452,3.452,0,0,0,52.5,36.773,0.331,0.331,0,0,0,52.825,36.757Zm22.789,8.1a7.659,7.659,0,0,0-3.082.423,6.15,6.15,0,0,0-.692.258c-0.669.312-1.333,0.637-2,.958-0.406.548-.795,1.109-1.22,1.64-0.737.921-1.5,1.824-2.247,2.734a0.591,0.591,0,0,0-.285.628,0.666,0.666,0,0,0,.475.191,5.106,5.106,0,0,1,2.523,1.062,13.907,13.907,0,0,1,2.342,2.111,5.845,5.845,0,0,1,1.5,3.936c0,1.19,0,2.381-.022,3.571a3.479,3.479,0,0,1-.616,2.122,3.6,3.6,0,0,0-.361.851,2.774,2.774,0,0,1-1.4,1.66,2.976,2.976,0,0,0-1.466,1.363,3.412,3.412,0,0,1-2.5,1.736,9.924,9.924,0,0,1-1.277.166c-0.49.036-.982,0.05-1.473,0.046-1.594-.016-1.718.089-0.821,1.641a10.541,10.541,0,0,0,2.282,2.923,15.154,15.154,0,0,1,1.169,1.2c0.3,0.314.593,0.635,0.891,0.951a8.477,8.477,0,0,0,5.683,2.79c2.633,0.186,5.255.567,7.9,0.5,0.921,0,1.843.025,2.763-.006a8.6,8.6,0,0,0,4.208-1.214c0.687-.412,1.409-0.764,2.109-1.155,0.43-.241.858-0.489,1.268-0.765a3.439,3.439,0,0,0,1.571-2.436,11.307,11.307,0,0,1,1.742-4.5,14.761,14.761,0,0,0,1.634-3.564,6.75,6.75,0,0,0,.165-3.523c-0.311-1.4-.638-2.806-1-4.2a19.952,19.952,0,0,0-.727-2.127,5.847,5.847,0,0,0-1.175-1.894c-1.4-1.5-2.807-2.983-4.189-4.5A8.353,8.353,0,0,0,86.6,48.482a46.7,46.7,0,0,0-8.453-3.175A17.1,17.1,0,0,0,75.613,44.855ZM47.8,52.069a3.787,3.787,0,0,0-1.683-.5,3.743,3.743,0,0,0-2.969,1.368,0.556,0.556,0,0,0-.011.68,5.671,5.671,0,0,0,.558.481,0.7,0.7,0,0,0,.844.124,1.183,1.183,0,0,1,.163-0.087,8.615,8.615,0,0,1,3.14-.947,0.384,0.384,0,0,0,.364-0.362,1.181,1.181,0,0,0-.136-0.507A0.721,0.721,0,0,0,47.8,52.069Zm-0.021,3.515a0.418,0.418,0,0,0-.243-0.251,2.256,2.256,0,0,0-1.427.048,1,1,0,0,0-.64.617,7.245,7.245,0,0,0-.349,1.43,1.51,1.51,0,0,0,.8,1.538,0.639,0.639,0,0,0,.678.019,2.431,2.431,0,0,0,1.251-2.116c0-.185,0-0.37,0-0.861A1.9,1.9,0,0,0,47.777,55.585Zm0.3,5.339A0.63,0.63,0,0,0,47.8,60.69c-0.109-.073-0.3.087-0.365,0.3-0.069.239-.131,0.481-0.2,0.721-0.084.3-.167,0.6-0.255,0.9-0.053.18-.1,0.361-0.17,0.536A4.856,4.856,0,0,1,44.706,65.9a1.211,1.211,0,0,0-.636,1.068c-0.016.25-.035,0.5-0.078,1.116a6.026,6.026,0,0,0,.285,1.673,17.074,17.074,0,0,0,2.132,4.761c0.067,0.1.14,0.206,0.217,0.3a2.25,2.25,0,0,0,1.513.975,2.516,2.516,0,0,1,1.46.727c0.361,0.337.753,0.641,1.142,0.945a0.441,0.441,0,0,0,.512.1c1-.615,1.988-1.235,2.97-1.871a2.651,2.651,0,0,0,.351-0.428,0.967,0.967,0,0,1,.418-0.34c0.9-.127,1.439-0.932,2.255-1.217a1.311,1.311,0,0,0,.537-0.5,3.689,3.689,0,0,0,.624-3.372c-0.364-1.13-.729-2.254-1.011-3.41a5.058,5.058,0,0,0-.611-1.36c-1.055-1.762-2.136-3.509-3.209-5.259a0.385,0.385,0,0,0-.124-0.136,1.776,1.776,0,0,0-.477-0.235,0.649,0.649,0,0,0-.452.522,3.367,3.367,0,0,0-.109.738A2.07,2.07,0,0,1,50.9,62.8a1.7,1.7,0,0,1-1.883-.309A2.964,2.964,0,0,1,48.077,60.923Zm2.533-3.269a0.394,0.394,0,0,0-.242-0.239,0.329,0.329,0,0,0-.3.1A7.951,7.951,0,0,0,49.4,60.9a1.3,1.3,0,0,0,.257.546,0.75,0.75,0,0,0,1.134.081,0.36,0.36,0,0,0,.127-0.593,0.711,0.711,0,0,0-.155-0.1,0.747,0.747,0,0,1-.394-0.775c0.065-.618.175-1.232,0.253-1.849A1.606,1.606,0,0,0,50.61,57.654ZM49.519,55.4a1.547,1.547,0,0,0,1.166.808c0.242,0.027.487,0.031,0.843,0.052a7.985,7.985,0,0,0,.966-0.179,0.8,0.8,0,0,0,.573-0.665,0.83,0.83,0,0,0-.33-0.822,2.7,2.7,0,0,0-2.934-.29A0.736,0.736,0,0,0,49.519,55.4Zm1.512-4.682a0.626,0.626,0,0,0-.48.113c-0.278.532-.5,1.092-0.73,1.6a0.62,0.62,0,0,0,.124.2,0.5,0.5,0,0,0,.31.091,1.608,1.608,0,0,0,1.02-1.385,0.817,0.817,0,0,0-.034-0.358A0.428,0.428,0,0,0,51.031,50.719Zm0.057-2.95a2.857,2.857,0,0,0-1.564.852,0.365,0.365,0,0,0,.1.307,2.137,2.137,0,0,0,.645.3,9.1,9.1,0,0,0,.934.144,6.776,6.776,0,0,0,.839.151,0.343,0.343,0,0,0,.253-0.2A1.164,1.164,0,0,0,51.089,47.769Zm15.639,0.925c1.85-2.285,1.9-2.391,2.543-5.291,0.067-.3.147-0.606,0.225-0.908a4.151,4.151,0,0,0,.007-2.042c-0.209-.848-0.448-1.689-0.712-2.52a3.479,3.479,0,0,0-1.3-1.775,9.251,9.251,0,0,0-1.074-.719,6.583,6.583,0,0,1-2.028-1.586,1.958,1.958,0,0,0-1.465-.669c-0.122-.008-0.245,0-0.367,0a7.273,7.273,0,0,0-5.151,1.648c-0.922.616-1.817,1.275-2.727,1.91a4.583,4.583,0,0,0-1.77,2.546,9.958,9.958,0,0,0-.62,3.75,13.955,13.955,0,0,0,.421,3.447c0.226,0.8.82,1.388,1.029,2.178A2.394,2.394,0,0,0,54.38,49a1,1,0,0,1,.806.664,8.954,8.954,0,0,0,.51.992,2.337,2.337,0,0,0,.886.923,4.872,4.872,0,0,1,1.365.937,1.183,1.183,0,0,0,1.629.248,9.493,9.493,0,0,1,3.318-1.03,3.3,3.3,0,0,0,1.939-1c0.494-.465.952-0.971,1.419-1.467C66.422,49.086,66.571,48.886,66.727,48.693ZM54.845,54.219a0.593,0.593,0,0,0,.692-0.435,2.4,2.4,0,0,0-.033-0.906,6.633,6.633,0,0,0-1.389-2.366,0.658,0.658,0,0,0-.494-0.085,0.493,0.493,0,0,0-.17.3,2.237,2.237,0,0,0-.046.4,6.16,6.16,0,0,0,.389,2.142A1.714,1.714,0,0,0,54.845,54.219Zm1.248,4.349a0.78,0.78,0,0,0,.357,0,1.636,1.636,0,0,0,.475-0.241,0.719,0.719,0,0,0-.064-0.687,1.973,1.973,0,0,0-.5-0.5,3.277,3.277,0,0,0-1.921-.428,0.369,0.369,0,0,0-.372.3,0.7,0.7,0,0,0,.081.343A3.09,3.09,0,0,0,56.093,58.568Zm14.476-2.918a12.294,12.294,0,0,0-2.512-2.193,3.521,3.521,0,0,0-1.913-.6,7.214,7.214,0,0,0-2.186.266,7.154,7.154,0,0,1-2.891.458,1.964,1.964,0,0,0-.89.2,10.221,10.221,0,0,1-2.47.726,0.413,0.413,0,0,0-.182.612c0.142,0.2.293,0.4,0.451,0.592a0.942,0.942,0,0,1,.206,1.04,2.228,2.228,0,0,0,.031,1.285,1.582,1.582,0,0,1-1.374,1.706c-0.483.055-.974,0.022-1.462,0.036-0.161.005-.217,0.108-0.166,0.268a1.555,1.555,0,0,0,.12.351,30.934,30.934,0,0,0,2.827,4.164c0.813,0.936,1.523,1.965,2.288,2.946,1.2,1.542,1.38,1.626,3.262,1.631h0.539c0.443-.031,1.057-0.061,1.668-0.12a2.6,2.6,0,0,0,2.248-1.411A3.542,3.542,0,0,1,69.9,66a1.678,1.678,0,0,0,.912-1.116,2.32,2.32,0,0,1,.338-0.866,3.135,3.135,0,0,0,.621-2.288c-0.015-.94,0-1.88.009-2.82A4.77,4.77,0,0,0,70.568,55.651Zm-28.527-1.48a1.659,1.659,0,0,1-.337-0.856,1.723,1.723,0,0,0-.849-1.367,9.594,9.594,0,0,0-2.224-1.309,14.763,14.763,0,0,1-2.64-1.314,1.152,1.152,0,0,0-1.227-.042,15.564,15.564,0,0,0-1.426.853c-1.226.832-2.438,1.684-3.655,2.529-0.1.07-.2,0.15-0.3,0.218a4.782,4.782,0,0,0-2.145,3.545,12.246,12.246,0,0,0,.01,3.735,3,3,0,0,0,.805,1.65A9.8,9.8,0,0,0,29,62.7a3.021,3.021,0,0,1,1.116,1.881c0.036,0.184.09,0.365,0.118,0.55a1.367,1.367,0,0,0,.755,1,7.947,7.947,0,0,0,2.956.976c0.547,0.068,1.1.08,1.652,0.117a10.759,10.759,0,0,0,4.295-.88,19.592,19.592,0,0,1,3.131-1.062,4.281,4.281,0,0,0,.865-0.3A2.866,2.866,0,0,0,45.328,63.6a7.431,7.431,0,0,0,.8-2.674,0.4,0.4,0,0,0-.457-0.436,2.753,2.753,0,0,0-.367.019,0.429,0.429,0,0,1-.447-0.259,10.772,10.772,0,0,1-.953-2.624,1,1,0,0,0-.666-0.824,4.554,4.554,0,0,1-.5-0.234,0.823,0.823,0,0,1-.391-0.6,1.2,1.2,0,0,1-.008-0.374A1.811,1.811,0,0,0,42.041,54.171ZM64.164,75.934c-0.666-.735-1.33-1.477-1.945-2.257A11.746,11.746,0,0,1,60,69.389a2.321,2.321,0,0,0-.667-1.306,0.174,0.174,0,0,0-.15-0.033,0.182,0.182,0,0,0-.09.141c0.083,0.3.181,0.594,0.28,0.91a4.647,4.647,0,0,1,.045,3.46,3.24,3.24,0,0,1-1.126,1.66,53.574,53.574,0,0,1-5.805,3.97c-1.616.957-1.739,0.787-2.938-.184a7.166,7.166,0,0,1-.574-0.469,2.032,2.032,0,0,0-1.121-.588,3.521,3.521,0,0,1-2.341-1.683A17.741,17.741,0,0,1,43.145,70a12.781,12.781,0,0,1-.233-2.046c-0.023-.248,0-0.5-0.011-0.751a0.458,0.458,0,0,0-.6-0.5,5.621,5.621,0,0,0-.872.295,11.229,11.229,0,0,1-3.3,1.139,5.867,5.867,0,0,0-.879.275,0.989,0.989,0,0,0-.555.463c-0.063.107-.123,0.216-0.177,0.328a23.662,23.662,0,0,1-3.114,4.861,16.939,16.939,0,0,0-2.39,4,6.37,6.37,0,0,0-.532,3.469,30.7,30.7,0,0,0,1.21,5.868c0.216,0.651.471,1.29,0.744,1.919a7.13,7.13,0,0,0,1.984,2.672c0.428,0.356.845,0.728,1.282,1.071a85.9,85.9,0,0,0,8.537,5.893,22.588,22.588,0,0,0,4.7,2.132,3.8,3.8,0,0,0,2.513.027A44.461,44.461,0,0,0,56.6,99.065a14.282,14.282,0,0,0,2.977-1.86c1.094-.908,2.2-1.805,3.236-2.783a19.657,19.657,0,0,0,1.959-2.238,8.708,8.708,0,0,0,1.707-3.706c0.361-1.84.885-3.647,1.1-5.518a8.707,8.707,0,0,0,.087-1.122,5.254,5.254,0,0,0-1.445-3.745C65.52,77.385,64.83,76.67,64.164,75.934Z"/>
</svg>
